<svg width="130" height="132" viewBox="0 0 130 132" fill="none" xmlns="http://www.w3.org/2000/svg">
<g clip-path="url(#clip0_1_1629)">
<path d="M64.8113 0C82.0003 0 98.4853 6.83596 110.64 19.0041C122.794 31.1721 129.623 47.6756 129.623 64.8839V67.2572C129.623 75.7778 127.946 84.2151 124.689 92.0872C121.432 99.9592 116.658 107.112 110.64 113.137C104.621 119.162 97.4767 123.941 89.6135 127.202C81.7502 130.463 73.3224 132.141 64.8113 132.141C47.6222 132.141 31.1373 125.305 18.9828 113.137C6.82831 100.969 0 84.4654 0 67.2572L0 64.8839C0 47.6756 6.82831 31.1721 18.9828 19.0041C31.1373 6.83596 47.6222 0 64.8113 0Z" fill="#2676EE"/>
<mask id="mask0_1_1629" style="mask-type:luminance" maskUnits="userSpaceOnUse" x="0" y="0" width="130" height="133">
<path d="M64.8197 0C82.0087 0 98.4937 6.83596 110.648 19.0041C122.803 31.1721 129.631 47.6756 129.631 64.8839V67.2572C129.631 75.7778 127.955 84.2151 124.697 92.0872C121.44 99.9592 116.666 107.112 110.648 113.137C104.63 119.162 97.4851 123.941 89.6219 127.202C81.7586 130.463 73.3308 132.141 64.8197 132.141C47.6307 132.141 31.1457 125.305 18.9912 113.137C6.83673 100.969 0.00842285 84.4654 0.00842285 67.2572V64.8839C0.00842285 47.6756 6.83673 31.1721 18.9912 19.0041C31.1457 6.83596 47.6307 0 64.8197 0Z" fill="white"/>
</mask>
<g mask="url(#mask0_1_1629)">
<path opacity="0.8" d="M121.668 47.0904C101.185 35.3655 83.04 45.0181 73.9696 55.2966C64.8992 65.575 58.1337 75.9612 46.7543 77.8635C35.375 79.7658 18.0783 74.9333 5.20519 84.0181C-7.66797 93.1029 -7.62245 117.232 2.56932 130.909C12.7611 144.586 39.1364 151.135 69.5793 155.536C80.5011 157.193 91.6469 156.573 102.319 153.717L116.144 148.685C122.893 145.602 128.557 142.12 133.349 139.302C140.64 134.987 143.206 124.485 144.604 116.789C146.629 105.256 146.453 93.4427 144.087 81.9749C141.017 67.5229 134.044 54.1734 121.668 47.0904Z" fill="#669DF0"/>
<path d="M84.9767 23.2885C84.9767 23.2885 96.0381 19.3432 103.733 30.5085C111.428 41.6737 108.248 47.6265 113.302 55.5389C118.357 63.4512 110.344 73.432 113.172 76.1058C115.999 78.7795 127.622 87.2667 122.741 104.877C120.488 113.024 140.24 126.898 130.192 133.426C118.522 141.011 76.5165 140.619 67.73 140.21C54.0283 139.566 28.5822 136.095 22.9276 124.777C17.2729 113.46 15.4155 99.2157 20.7744 91.9827C26.1333 84.7497 29.6218 82.015 25.2242 74.0591C22.9493 69.944 9.67822 56.179 23.3799 48.5889C29.5261 45.1836 24.3021 31.1356 32.136 24.0636C40.7615 16.2732 45.3157 23.0708 52.0796 16.9874C59.7569 10.0679 82.4321 5.25603 84.9767 23.2885Z" fill="black"/>
<path d="M74.3851 88.9214H53.5367V116.164H74.3851V88.9214Z" fill="#EFB2A2"/>
<path d="M74.3851 97.709V88.9258H53.5324V102.055C59.9874 102.787 68.078 100.283 74.3851 97.709Z" fill="black"/>
<path d="M63.2889 95.5274C84.8207 95.5274 102.276 79.1719 102.276 58.9965C102.276 38.821 84.8207 22.4655 63.2889 22.4655C41.7571 22.4655 24.3021 38.821 24.3021 58.9965C24.3021 79.1719 41.7571 95.5274 63.2889 95.5274Z" fill="#EFB2A2"/>
<path d="M72.419 61.5047C72.419 61.5047 81.8536 42.7798 96.4905 56.9062C96.4905 56.9062 88.1868 76.9941 72.419 61.5047Z" fill="white"/>
<path d="M58.7173 71.7468C58.647 71.7463 58.5783 71.7254 58.5195 71.6868C58.4607 71.6482 58.4143 71.5935 58.3858 71.5291C58.3574 71.4647 58.3481 71.3935 58.359 71.324C58.37 71.2545 58.4007 71.1896 58.4476 71.1371L62.4929 66.5822C62.5604 66.5087 62.6542 66.4649 62.7538 66.4603C62.8035 66.4589 62.8529 66.4674 62.8992 66.4854C62.9455 66.5033 62.9878 66.5303 63.0235 66.5648L67.1254 70.6015C67.1596 70.6352 67.1869 70.6754 67.2057 70.7197C67.2245 70.764 67.2343 70.8116 67.2347 70.8597C67.2351 70.9078 67.2261 70.9555 67.208 71.0002C67.19 71.0448 67.1634 71.0854 67.1297 71.1197C67.096 71.154 67.0559 71.1813 67.0116 71.2001C66.9674 71.2189 66.9198 71.2288 66.8718 71.2292C66.8237 71.2296 66.776 71.2205 66.7315 71.2025C66.6869 71.1844 66.6464 71.1578 66.6121 71.1241L62.7843 67.3573L58.9913 71.6248C58.9565 71.663 58.9142 71.6935 58.867 71.7145C58.8199 71.7355 58.7689 71.7465 58.7173 71.7468Z" fill="black"/>
<path d="M90.5401 48.0228C90.4872 48.0242 90.4348 48.0122 90.3878 47.9879C82.9585 44.4781 77.2646 47.9313 77.2081 47.9879C77.1672 48.0134 77.1218 48.0305 77.0743 48.0384C77.0269 48.0463 76.9783 48.0447 76.9315 48.0338C76.8846 48.0229 76.8404 48.0028 76.8013 47.9748C76.7621 47.9467 76.7289 47.9113 76.7035 47.8704C76.6781 47.8295 76.661 47.784 76.6531 47.7365C76.6453 47.689 76.6468 47.6404 76.6577 47.5935C76.6686 47.5465 76.6887 47.5022 76.7167 47.4631C76.7447 47.4239 76.7801 47.3907 76.821 47.3652C77.0645 47.2128 82.9106 43.6594 90.6967 47.3435C90.7719 47.3789 90.8328 47.439 90.8693 47.5137C90.9058 47.5885 90.9157 47.6735 90.8975 47.7547C90.8792 47.8359 90.8339 47.9084 90.7689 47.9603C90.7039 48.0123 90.6232 48.0404 90.5401 48.0402V48.0228Z" fill="black"/>
<path d="M52.8408 48.1796C52.7663 48.1788 52.6936 48.1561 52.632 48.1143C52.5798 48.0751 47.0034 44.3083 39.2826 47.4001C39.1936 47.4315 39.0958 47.4272 39.0099 47.3881C38.9239 47.3489 38.8565 47.278 38.8216 47.1902C38.7867 47.1024 38.7872 47.0044 38.8228 46.9169C38.8585 46.8294 38.9266 46.7591 39.0129 46.7208C47.1078 43.4766 52.8103 47.3478 53.0495 47.5177C53.0888 47.5447 53.1224 47.5792 53.1483 47.6193C53.1742 47.6594 53.1919 47.7042 53.2004 47.7512C53.2088 47.7981 53.208 47.8463 53.1978 47.8929C53.1876 47.9396 53.1682 47.9837 53.1409 48.0228C53.1078 48.0718 53.063 48.1117 53.0106 48.1391C52.9582 48.1665 52.8998 48.1804 52.8408 48.1796Z" fill="black"/>
<path d="M24.3195 64.8491C24.2348 64.8494 24.1526 64.82 24.0874 64.7658C24.0222 64.7117 23.9781 64.6363 23.9628 64.5529C23.2059 60.5075 17.1032 58.23 17.038 58.2083C16.9469 58.1748 16.8728 58.1064 16.832 58.0182C16.7912 57.93 16.7871 57.8292 16.8205 57.738C16.854 57.6467 16.9223 57.5725 17.0104 57.5317C17.0985 57.4908 17.1992 57.4867 17.2903 57.5202C17.5556 57.616 23.8497 59.9632 24.6849 64.4179C24.6944 64.4657 24.6943 64.5149 24.6848 64.5626C24.6753 64.6104 24.6565 64.6558 24.6294 64.6962C24.6023 64.7367 24.5676 64.7714 24.5271 64.7983C24.4866 64.8253 24.4412 64.844 24.3934 64.8534L24.3195 64.8491Z" fill="black"/>
<path d="M18.5648 67.2485C18.5069 67.2487 18.4498 67.2349 18.3983 67.2084C18.3468 67.1819 18.3025 67.1433 18.269 67.096C18.2127 67.0174 18.1897 66.9197 18.2052 66.8242C18.2207 66.7287 18.2734 66.6433 18.3516 66.5865L23.5713 62.8329C23.6504 62.7769 23.7484 62.7547 23.8438 62.771C23.9392 62.7873 24.0242 62.8409 24.0802 62.92C24.1366 62.9986 24.1595 63.0963 24.144 63.1918C24.1285 63.2873 24.0759 63.3727 23.9976 63.4294L18.7779 67.1831C18.7149 67.2256 18.6407 67.2483 18.5648 67.2485Z" fill="black"/>
<path d="M55.0635 61.7355C55.0635 61.7355 45.1156 43.2806 30.8745 57.8163C30.8745 57.8076 39.7262 77.6604 55.0635 61.7355Z" fill="white"/>
<path d="M96.4905 56.9062C90.6271 51.2452 85.6161 50.862 81.6753 52.434C80.5965 53.4562 79.7821 54.7255 79.3021 56.1328C78.8221 57.54 78.6909 59.0429 78.9199 60.5121C79.1489 61.9814 79.7311 63.3729 80.6165 64.5668C81.5019 65.7608 82.6639 66.7214 84.0024 67.366C92.2234 67.2267 96.4905 56.9062 96.4905 56.9062Z" fill="black"/>
<path d="M55.1027 61.7224C55.1027 61.7224 49.3349 51.058 40.3135 52.3513C39.1232 53.4524 38.2458 54.8497 37.7704 56.4008C37.2951 57.9519 37.2389 59.6014 37.6076 61.1813C37.9763 62.7613 38.7566 64.2151 39.8692 65.3949C40.9818 66.5746 42.3868 67.4381 43.9412 67.8973C47.1383 67.7971 50.8747 66.125 55.1027 61.7224Z" fill="black"/>
<path d="M79.8919 74.4292C72.1048 76.2614 64.6106 79.1706 57.6255 83.0732C57.6255 83.0732 72.9627 86.5917 79.8919 74.4292Z" fill="#430400"/>
<path d="M63.2845 22.4655C41.7533 22.4655 23.7844 36.7617 24.2977 59.0008C24.2977 59.7237 31.6227 53.0045 35.3939 48.4016C39.1652 43.7988 38.8737 32.9689 54.4284 38.9434C69.9831 44.918 79.7266 30.2951 79.7266 30.2951C81.3012 39.7534 86.9559 39.5922 93.6893 43.973C100.423 48.3538 102.293 56.5666 99.9399 64.6226C99.0003 67.832 97.7432 77.7387 98.5436 79.964C101.458 74.8473 102.271 65.2061 102.271 59.0008C102.271 38.8215 84.8158 22.4655 63.2845 22.4655Z" fill="black"/>
<path d="M74.3851 106.945H53.5367V116.164L2.27057 122.356L2.95783 131.989L130.188 133.426L132.006 118.642L74.3851 116.164V106.945Z" fill="#EE26C2"/>
<path d="M113.55 61.5003L112.324 72.7875C112.176 74.152 111.761 75.4739 111.102 76.6778C110.444 77.8817 109.556 78.9441 108.487 79.8041C107.419 80.6642 106.192 81.3052 104.876 81.6905C103.56 82.0759 102.181 82.1979 100.819 82.0498L99.805 81.9409C98.8828 81.8401 98.0381 81.3774 97.4559 80.6542C96.8738 79.931 96.6017 79.0064 96.6993 78.0828L99.5701 51.5979C99.6035 51.2968 99.7012 51.0064 99.8565 50.7465C100.012 50.4865 100.221 50.263 100.471 50.0912C100.816 49.8441 101.229 49.7116 101.654 49.7124C101.733 49.708 101.813 49.708 101.893 49.7124C100.557 41.7921 96.6404 34.5371 90.7535 29.0794C84.8666 23.6218 77.3408 20.2683 69.3502 19.5424C61.3597 18.8164 53.3538 20.7587 46.5817 25.0663C39.8096 29.3739 34.6522 35.8044 31.9141 43.3546C28.5858 49.1989 26.8751 55.8264 26.9584 62.5533C27.0418 69.2803 28.9162 75.8632 32.3883 81.6231L28.5561 82.0368C27.1932 82.1849 25.8145 82.0628 24.4987 81.6775C23.1829 81.2922 21.9558 80.6512 20.8874 79.7911C19.8191 78.931 18.9304 77.8687 18.2722 76.6648C17.6139 75.4608 17.199 74.1389 17.051 72.7745L15.8244 61.4873C15.6765 60.1225 15.7986 58.7419 16.1837 57.4244C16.5689 56.1068 17.2095 54.8782 18.0691 53.8086C18.9287 52.739 19.9903 51.8494 21.1934 51.1906C22.3965 50.5319 23.7174 50.1169 25.0807 49.9693L25.6331 49.9083C27.3335 40.3575 32.3534 31.7167 39.8048 25.5145C47.2563 19.3123 56.6588 15.9485 66.349 16.0184C76.0392 16.0883 85.3924 19.5872 92.7539 25.8962C100.115 32.2052 105.01 40.9175 106.573 50.4918C108.81 51.2636 110.719 52.7733 111.987 54.7734C113.254 56.7735 113.806 59.1454 113.55 61.5003Z" fill="#EE26C2"/>
<path d="M84.085 94.1992C79.7831 94.1992 74.8809 93.1715 69.4177 91.1162L70.5312 88.1419C79.9919 91.6997 87.4387 91.9653 92.6627 88.9388C98.3174 85.6555 99.3961 79.4327 99.4092 79.3587L102.541 79.8551C102.493 80.1686 101.262 87.5845 94.3026 91.6518C91.4057 93.3501 87.9911 94.1992 84.085 94.1992Z" fill="#EE26C2"/>
<path d="M68.7391 93.1019L65.3289 91.7737C64.4339 91.4246 63.714 90.7341 63.3274 89.8538C62.9408 88.9736 62.9191 87.9757 63.2672 87.0794C63.4393 86.6354 63.6973 86.2297 64.0262 85.8856C64.3551 85.5415 64.7486 85.2657 65.1841 85.074C65.6197 84.8823 66.0887 84.7784 66.5643 84.7684C67.04 84.7583 67.513 84.8422 67.9562 85.0153L71.3664 86.3435C71.8099 86.5159 72.2151 86.7741 72.5588 87.1034C72.9026 87.4327 73.1781 87.8266 73.3696 88.2626C73.5611 88.6986 73.6648 89.1682 73.6748 89.6444C73.6849 90.1205 73.6011 90.5941 73.4282 91.0378C73.256 91.4818 72.998 91.8874 72.6691 92.2316C72.3402 92.5757 71.9467 92.8515 71.5112 93.0432C71.0756 93.2349 70.6066 93.3388 70.131 93.3488C69.6553 93.3589 69.1824 93.275 68.7391 93.1019Z" fill="black"/>
</g>
</g>
<defs>
<clipPath id="clip0_1_1629">
<rect width="130" height="132" fill="white"/>
</clipPath>
</defs>
</svg>
